HIERARCHY
ROOT hip
{
  OFFSET -4.09641 83.8251 34.7277
  CHANNELS 6 Xposition Yposition Zposition Zrotation Xrotation Yrotation
  JOINT abdomen
  {
    OFFSET 0 20.6881 -0.73152
    CHANNELS 3 Zrotation Xrotation Yrotation
    JOINT chest
    {
      OFFSET 0 11.7043 -0.48768
      CHANNELS 3 Zrotation Xrotation Yrotation
      JOINT neck
      {
        OFFSET 0 22.1894 -2.19456
        CHANNELS 3 Zrotation Xrotation Yrotation
        JOINT head
        {
          OFFSET -0.24384 7.07133 1.2192
          CHANNELS 3 Zrotation Xrotation Yrotation
          JOINT leftEye
          {
            OFFSET 4.14528 8.04674 8.04672
            CHANNELS 3 Zrotation Xrotation Yrotation
            End Site
            {
              OFFSET 1 0 0
            }
          }
          JOINT rightEye
          {
            OFFSET -3.6576 8.04674 8.04672
            CHANNELS 3 Zrotation Xrotation Yrotation
            End Site
            {
              OFFSET 1 0 0
            }
          }
        }
      }
      JOINT rCollar
      {
        OFFSET -2.68224 19.2634 -4.8768
        CHANNELS 3 Zrotation Xrotation Yrotation
        JOINT rShldr
        {
          OFFSET -8.77824 -1.95073 1.46304
          CHANNELS 3 Zrotation Xrotation Yrotation
          JOINT rForeArm
          {
            OFFSET -28.1742 -1.7115 0.48768
            CHANNELS 3 Zrotation Xrotation Yrotation
            JOINT rHand
            {
              OFFSET -22.5879 0.773209 7.07136
              CHANNELS 3 Zrotation Xrotation Yrotation
              JOINT rThumb1
              {
                OFFSET -1.2192 -0.487915 3.41376
                CHANNELS 3 Zrotation Xrotation Yrotation
                JOINT rThumb2
                {
                  OFFSET -3.37035 -0.52449 3.41376
                  CHANNELS 3 Zrotation Xrotation Yrotation
                  End Site
                  {
                    OFFSET -1.78271 -1.18214 1.43049
                  }
                }
              }
              JOINT rIndex1
              {
                OFFSET -7.75947 0.938293 5.60832
                CHANNELS 3 Zrotation Xrotation Yrotation
                JOINT rIndex2
                {
                  OFFSET -2.54057 -0.884171 1.56538
                  CHANNELS 3 Zrotation Xrotation Yrotation
                  End Site
                  {
                    OFFSET -1.62519 -0.234802 1.16502
                  }
                }
              }
              JOINT rMid1
              {
                OFFSET -8.24714 1.18213 3.41376
                CHANNELS 3 Zrotation Xrotation Yrotation
                JOINT rMid2
                {
                  OFFSET -3.10165 -0.590103 1.0647
                  CHANNELS 3 Zrotation Xrotation Yrotation
                  End Site
                  {
                    OFFSET -2.48547 -0.328903 0.83742
                  }
                }
              }
              JOINT rRing1
              {
                OFFSET -8.82822 0.546677 1.51678
                CHANNELS 3 Zrotation Xrotation Yrotation
                JOINT rRing2
                {
                  OFFSET -2.60934 -0.819778 -0.0198488
                  CHANNELS 3 Zrotation Xrotation Yrotation
                  End Site
                  {
                    OFFSET -2.33842 -0.294052 0.168128
                  }
                }
              }
              JOINT rPinky1
              {
                OFFSET -8.27202 -0.0477905 -0.4584
                CHANNELS 3 Zrotation Xrotation Yrotation
                JOINT rPinky2
                {
                  OFFSET -1.82734 -0.647385 -0.700984
                  CHANNELS 3 Zrotation Xrotation Yrotation
                  End Site
                  {
                    OFFSET -1.69225 -0.51767 -0.607171
                  }
                }
              }
            }
          }
        }
      }
      JOINT lCollar
      {
        OFFSET 2.68224 19.2634 -4.8768
        CHANNELS 3 Zrotation Xrotation Yrotation
        JOINT lShldr
        {
          OFFSET 8.77824 -1.95073 1.46304
          CHANNELS 3 Zrotation Xrotation Yrotation
          JOINT lForeArm
          {
            OFFSET 28.1742 -1.7115 0.48768
            CHANNELS 3 Zrotation Xrotation Yrotation
            JOINT lHand
            {
              OFFSET 22.5879 0.773209 7.07136
              CHANNELS 3 Zrotation Xrotation Yrotation
              JOINT lThumb1
              {
                OFFSET 1.2192 -0.487915 3.41376
                CHANNELS 3 Zrotation Xrotation Yrotation
                JOINT lThumb2
                {
                  OFFSET 3.37035 -0.52449 3.41376
                  CHANNELS 3 Zrotation Xrotation Yrotation
                  End Site
                  {
                    OFFSET 1.78271 -1.18214 1.43049
                  }
                }
              }
              JOINT lIndex1
              {
                OFFSET 7.75947 0.938293 5.60832
                CHANNELS 3 Zrotation Xrotation Yrotation
                JOINT lIndex2
                {
                  OFFSET 2.54057 -0.884171 1.56538
                  CHANNELS 3 Zrotation Xrotation Yrotation
                  End Site
                  {
                    OFFSET 1.62519 -0.234802 1.16502
                  }
                }
              }
              JOINT lMid1
              {
                OFFSET 8.24714 1.18213 3.41376
                CHANNELS 3 Zrotation Xrotation Yrotation
                JOINT lMid2
                {
                  OFFSET 3.10165 -0.590103 1.0647
                  CHANNELS 3 Zrotation Xrotation Yrotation
                  End Site
                  {
                    OFFSET 2.48547 -0.328903 0.83742
                  }
                }
              }
              JOINT lRing1
              {
                OFFSET 8.82822 0.546677 1.51678
                CHANNELS 3 Zrotation Xrotation Yrotation
                JOINT lRing2
                {
                  OFFSET 2.60934 -0.819778 -0.0198488
                  CHANNELS 3 Zrotation Xrotation Yrotation
                  End Site
                  {
                    OFFSET 2.33842 -0.294052 0.168128
                  }
                }
              }
              JOINT lPinky1
              {
                OFFSET 8.27202 -0.0477905 -0.4584
                CHANNELS 3 Zrotation Xrotation Yrotation
                JOINT lPinky2
                {
                  OFFSET 1.82734 -0.647385 -0.700984
                  CHANNELS 3 Zrotation Xrotation Yrotation
                  End Site
                  {
                    OFFSET 1.69225 -0.51767 -0.607171
                  }
                }
              }
            }
          }
        }
      }
    }
  }
  JOINT rButtock
  {
    OFFSET -8.77824 4.35084 1.2192
    CHANNELS 3 Zrotation Xrotation Yrotation
    JOINT rThigh
    {
      OFFSET 0 -1.70687 -2.19456
      CHANNELS 3 Zrotation Xrotation Yrotation
      JOINT rShin
      {
        OFFSET 0 -36.8199 0.73152
        CHANNELS 3 Zrotation Xrotation Yrotation
        JOINT rFoot
        {
          OFFSET 0.73152 -45.1104 -5.12064
          CHANNELS 3 Zrotation Xrotation Yrotation
          End Site
          {
            OFFSET -1.1221 -3.69964 12.103
          }
        }
      }
    }
  }
  JOINT lButtock
  {
    OFFSET 8.77824 4.35084 1.2192
    CHANNELS 3 Zrotation Xrotation Yrotation
    JOINT lThigh
    {
      OFFSET 0 -1.70687 -2.19456
      CHANNELS 3 Zrotation Xrotation Yrotation
      JOINT lShin
      {
        OFFSET 0 -36.8199 0.73152
        CHANNELS 3 Zrotation Xrotation Yrotation
        JOINT lFoot
        {
          OFFSET -0.73152 -45.1104 -5.12064
          CHANNELS 3 Zrotation Xrotation Yrotation
          End Site
          {
            OFFSET 1.1221 -3.69964 12.103
          }
        }
      }
    }
  }
}
MOTION
Frames:	4
Frame Time:	0.00833333
-2.94442 84.2564 36.4618 0.943673 0.00141494 -0.0174858 -1.24151 -0.00398119 -0.0340789 -0.342494 -0.00249265 -0.0593272 2.14569e-015 -1.59028e-015 6.08778e-016 6.33005e-015 3.18055e-015 1.79993e-015 -0 0 0 -0 0 0 1.19123e-015 -3.37779e-017 3.47873e-016 2.66204e-014 -2.48481e-016 7.35503e-015 3.95681e-013 -1.43125e-013 1.20861e-013 4.56966e-012 1.20016e-014 1.20225e-012 1.0768e-011 -2.9227e-013 2.88476e-012 1.85895e-011 -5.05708e-013 4.96803e-012 1.07725e-011 -2.91816e-013 2.87522e-012 7.73091 5.47488 0.417314 1.07683e-011 -2.92015e-013 2.88476e-012 2.90554 0.965183 0.102902 1.07742e-011 -2.92114e-013 2.8792e-012 10.2786 0.731801 0.0259123 1.07628e-011 -2.91021e-013 2.8784e-012 2.22167 -0.733487 -0.20892 1.29364e-015 -3.02836e-017 1.98785e-016 2.03013e-014 -5.59082e-016 5.1684e-015 4.0239e-013 1.02175e-013 1.08139e-013 4.57103e-012 -2.36305e-013 1.22451e-012 1.07864e-011 -2.96163e-013 2.87522e-012 1.86273e-011 -5.1525e-013 4.97995e-012 1.07797e-011 -2.94996e-013 2.88476e-012 -7.73091 5.47488 -0.417314 1.07856e-011 -2.96289e-013 2.87522e-012 -2.90554 0.965183 -0.102902 1.07766e-011 -2.95891e-013 2.88158e-012 -10.2786 0.731801 -0.0259123 1.07851e-011 -2.94996e-013 2.88476e-012 -2.22167 -0.733487 0.20892 -2.03217e-016 0 -3.88251e-019 -0.453831 -1.92099 -0.00952726 -0.00915567 -2.07857 -0.0755527 -0.487462 3.99699 0.136654 2.03217e-016 0 3.88251e-019 -1.43727 -5.97115 0.129662 -0.00126425 5.25795 -0.0454139 0.507817 0.710744 -0.0722743 
-4.05126 83.8116 35.3127 0.85943 0.662873 -1.47168 -1.82239 -0.396158 0.728466 0.378557 -0.896806 0.185933 -0.448241 0.582099 -0.491754 1.23111 -0.201697 -0.861374 -0 0 0 -0 0 0 9.35095e-015 6.52591e-015 6.8835e-014 22.6628 7.88722 -4.28485 -6.77002 -3.83991 9.61368 0.0167995 2.87584 0.402336 -1.34413e-010 2.72225e-010 3.01108e-011 -2.31743e-010 4.69712e-010 5.33863e-011 -1.34406e-010 2.72225e-010 3.01011e-011 7.73091 5.47488 0.417314 -1.34413e-010 2.72224e-010 3.01114e-011 2.90554 0.965183 0.102902 -1.34407e-010 2.72223e-010 3.01091e-011 10.2786 0.731801 0.0259123 -1.34419e-010 2.72225e-010 3.01143e-011 2.22167 -0.733487 -0.20892 9.37812e-015 6.52845e-015 6.86541e-014 -23.0453 9.15669 2.21672 5.65717 -2.94078 -8.39678 -0.000159294 0.280031 -0.039354 -3.01714e-010 -3.04448e-010 7.62265e-011 -5.21902e-010 -5.26046e-010 1.32936e-010 -3.01718e-010 -3.04447e-010 7.62369e-011 -7.73091 5.47488 -0.417314 -3.01713e-010 -3.04447e-010 7.62257e-011 -2.90554 0.965183 -0.102902 -3.01722e-010 -3.04446e-010 7.62298e-011 -10.2786 0.731801 -0.0259123 -3.01713e-010 -3.04445e-010 7.62298e-011 -2.22167 -0.733487 0.20892 -2.03217e-016 0 -3.88251e-019 -6.2313 -2.1586 -0.010509 -0.00650504 -1.76499 -0.0558219 -0.26416 3.91838 0.102607 2.03217e-016 0 3.88251e-019 0.336159 -6.43177 -1.94627 -0.0189625 9.29474 -0.172207 0.915699 -5.00138 4.92014 
-4.05213 83.8101 35.3079 0.806402 1.36167 -3.00966 -2.42408 -0.811204 1.53527 1.14897 -1.84218 0.445622 -0.908237 1.1961 -1.0161 2.52269 -0.412962 -1.78134 -0 0 0 -0 0 0 1.8953e-014 1.36763e-014 1.42967e-013 47.9455 16.0743 -9.09043 -12.5438 -7.53876 19.9119 -0.00958177 5.9187 0.831489 -3.00314e-010 5.80034e-010 5.72609e-011 -5.17856e-010 1.00084e-009 1.01885e-010 -3.00305e-010 5.80033e-010 5.7251e-011 7.73091 5.47488 0.417314 -3.00315e-010 5.80032e-010 5.72619e-011 2.90554 0.965183 0.102902 -3.00308e-010 5.80031e-010 5.72633e-011 10.2786 0.731801 0.0259123 -3.0032e-010 5.80033e-010 5.72748e-011 2.22167 -0.733487 -0.20892 1.88981e-014 1.36778e-014 1.42749e-013 -48.2182 18.7893 4.75706 10.7104 -5.83894 -17.3432 9.08993e-005 0.576801 -0.0810638 -6.4901e-010 -6.43423e-010 1.50674e-010 -1.12261e-009 -1.11173e-009 2.62895e-010 -6.49013e-010 -6.4342e-010 1.50686e-010 -7.73091 5.47488 -0.417314 -6.49008e-010 -6.43419e-010 1.50673e-010 -2.90554 0.965183 -0.102902 -6.49018e-010 -6.43418e-010 1.50674e-010 -10.2786 0.731801 -0.0259123 -6.49007e-010 -6.43417e-010 1.50671e-010 -2.22167 -0.733487 0.20892 -2.03217e-016 0 -3.88251e-019 -12.3389 -2.40978 -0.0115469 -0.0039378 -1.43347 -0.0349723 -0.0281801 3.83525 0.0666175 2.03217e-016 0 3.88251e-019 2.17499 -6.90931 -4.14545 -0.0177489 13.5624 -0.310515 2.4413 -10.9023 10.3477 
-4.046 83.8079 35.3031 0.791616 1.98064 -4.38239 -2.95282 -1.17969 2.25398 1.84365 -2.68526 0.677128 -1.31474 1.74578 -1.47587 3.67516 -0.604545 -2.58425 -0 0 0 -0 0 0 2.56704e-014 1.96453e-014 2.05809e-013 71.7543 23.1093 -13.8648 -16.5751 -10.2239 29.2846 -0.0719383 8.62581 1.21928 -4.24776e-010 8.1726e-010 8.4563e-011 -7.32409e-010 1.41015e-009 1.50223e-010 -4.24764e-010 8.17259e-010 8.4553e-011 7.73091 5.47488 0.417314 -4.24776e-010 8.17256e-010 8.45647e-011 2.90554 0.965183 0.102902 -4.24769e-010 8.17255e-010 8.4569e-011 10.2786 0.731801 0.0259123 -4.24781e-010 8.17257e-010 8.4586e-011 2.22167 -0.733487 -0.20892 2.55471e-014 1.96459e-014 2.05565e-013 -71.4819 27.295 7.39232 14.457 -8.06596 -25.4261 0.000676269 0.84009 -0.118073 -9.26713e-010 -9.12753e-010 2.22929e-010 -1.60296e-009 -1.57711e-009 3.88848e-010 -9.26715e-010 -9.1275e-010 2.22941e-010 -7.73091 5.47488 -0.417314 -9.2671e-010 -9.12747e-010 2.22927e-010 -2.90554 0.965183 -0.102902 -9.2672e-010 -9.12746e-010 2.22926e-010 -10.2786 0.731801 -0.0259123 -9.26708e-010 -9.12745e-010 2.2292e-010 -2.22167 -0.733487 0.20892 -2.03217e-016 0 -3.88251e-019 -17.7863 -2.63383 -0.012474 -0.00185177 -1.13782 -0.0163834 0.182163 3.76116 0.0345312 2.03217e-016 0 3.88251e-019 3.78264 -7.32266 -6.10999 0.00169725 17.3679 -0.439426 4.77895 -15.9156 15.455 
